<?xml version="1.0" encoding="utf-8"?>
<!-- Generator: Adobe Illustrator 18.0.0, SVG Export Plug-In . SVG Version: 6.00 Build 0)  -->
<!DOCTYPE svg PUBLIC "-//W3C//DTD SVG 1.1//EN" "http://www.w3.org/Graphics/SVG/1.1/DTD/svg11.dtd">
<svg version="1.1" id="Capa_1" xmlns="http://www.w3.org/2000/svg" xmlns:xlink="http://www.w3.org/1999/xlink" x="0px" y="0px"
	 viewBox="817.1 203.8 197.5 57.7" enable-background="new 817.1 203.8 197.5 57.7" xml:space="preserve">
<g>
	<path fill="#A5A5A5" d="M827.1,243.2c2.2-0.5,3-2,3-5c0-2.1-0.4-3.5-1.4-4.4c-0.9-0.8-2.5-1.3-4.7-1.3c-2.4,0-4.6,0.1-6.7,0.3
		c-0.2,0-0.3,0.1-0.3,0.3V249c0,0.3,0.1,0.3,0.3,0.3h3.8c0.2,0,0.3-0.1,0.3-0.3v-5.5h0.8l3.4,5.4c0.2,0.3,0.4,0.4,0.8,0.4h3.9
		c0.3,0,0.4-0.2,0.2-0.4L827.1,243.2z M823.5,240.3h-2.1v-3.9h2.1c1.6,0,2.1,0.5,2.1,2S825.2,240.3,823.5,240.3z M836.7,233.1V249
		c0,0.2-0.1,0.3-0.3,0.3h-3.9c-0.2,0-0.3-0.1-0.3-0.3v-15.9c0-0.2,0.1-0.3,0.3-0.3h3.8C836.6,232.7,836.7,232.9,836.7,233.1z
		 M837.8,229.5l-2.9,2.3c-0.1,0.1-0.2,0.1-0.3,0l-1.4-0.7c-0.1-0.1-0.1-0.2-0.1-0.3l0.8-1.7c0.1-0.1,0.2-0.2,0.2-0.2h3.3
		C837.9,228.9,838,229.3,837.8,229.5z M845.6,232.6c-2.8,0-4.6,0.4-5.7,1.8c-1.1,1.4-1.6,3.3-1.6,6.7c0.1,6.6,1.6,8.3,7.2,8.4
		c5.7-0.1,7.1-1.8,7.2-8.4c0-3.3-0.4-5.3-1.6-6.7C850.2,233.1,848.5,232.6,845.6,232.6z M847.8,244.7c-0.3,0.6-1.1,0.9-2.2,0.9
		c-1,0-1.9-0.3-2.2-0.9s-0.5-1.9-0.5-3.6s0.2-2.9,0.5-3.6c0.3-0.7,1.1-0.9,2.2-0.9c1,0,1.9,0.3,2.2,0.9c0.3,0.6,0.5,1.9,0.5,3.6
		S848.2,244,847.8,244.7z M870.4,233.7v2.4c0,0.2-0.1,0.3-0.3,0.3h-4.7c-1,0-1.8,0.3-2.1,0.9c-0.3,0.6-0.5,1.9-0.5,3.6
		s0.2,3,0.5,3.6s1,0.9,2.1,0.9h4.7c0.2,0,0.3,0.1,0.3,0.3v2.4c0,0.4-0.2,0.6-0.6,0.7c-1,0.3-2.5,0.4-4.4,0.4c-2.8,0-4.7-0.6-5.6-1.8
		c-0.9-1.1-1.5-3.4-1.5-6.7c0-3.3,0.3-5.3,1.5-6.7c1.1-1.4,2.8-1.8,5.6-1.8c1.8,0,3.2,0.2,4.4,0.4
		C870.2,233.2,870.4,233.3,870.4,233.7z M886,233.1v8c0,2.8-0.2,4.5-0.8,5.8c-0.9,2-2.7,2.5-6.1,2.5c-2.4,0-3.8-0.3-4.9-1
		c-1.7-1.2-2.1-3.3-2.1-7.4v-8c0-0.2,0.1-0.3,0.3-0.3h3.8c0.2,0,0.3,0.1,0.3,0.3v8c0,1.9,0.2,3,0.5,3.6s1,0.9,2.1,0.9
		c1,0,1.8-0.3,2.1-0.9s0.5-1.8,0.5-3.6v-8c0-0.2,0.1-0.3,0.3-0.3h3.8C885.9,232.7,886,232.8,886,233.1z M897.4,233
		c-0.4-0.3-1.4-0.4-2.9-0.4s-2.5,0.1-2.9,0.4c-0.4,0.3-0.8,0.9-1.1,2.2l-3.8,13.9c0,0.2,0,0.3,0.2,0.3h3.6c0.2,0,0.2-0.1,0.3-0.3
		l1.1-4.2h5l1.1,4.2c0.1,0.3,0.1,0.3,0.3,0.3h3.6c0.2,0,0.3-0.1,0.2-0.3l-3.8-13.9C898.2,234,897.8,233.3,897.4,233z M893,241.3
		l1.4-5c0.1-0.2,0.2-0.2,0.3,0l1.4,5H893z M913.6,243.2c2.2-0.5,3-2,3-5c0-2.1-0.4-3.5-1.4-4.4c-0.9-0.8-2.5-1.3-4.7-1.3
		c-2.4,0-4.6,0.1-6.7,0.3c-0.2,0-0.3,0.1-0.3,0.3V249c0,0.3,0.1,0.3,0.3,0.3h3.8c0.2,0,0.3-0.1,0.3-0.3v-5.5h0.8l3.4,5.4
		c0.2,0.3,0.4,0.4,0.8,0.4h3.9c0.3,0,0.4-0.2,0.2-0.4L913.6,243.2z M910.2,240.3h-2.1v-3.9h2.1c1.6,0,2.1,0.5,2.1,2
		C912.2,239.9,911.8,240.3,910.2,240.3z M931.1,233.1v3.2c0,0.2-0.1,0.3-0.3,0.3h-4.1v12.5c0,0.2-0.1,0.3-0.3,0.3h-3.8
		c-0.2,0-0.3-0.1-0.3-0.3v-12.5h-4.1c-0.2,0-0.3-0.1-0.3-0.3v-3.2c0-0.2,0.1-0.3,0.3-0.3h12.5C931,232.7,931.1,232.8,931.1,233.1z
		 M945.1,234.4c-1.1-1.4-2.8-1.8-5.7-1.8c-2.9,0-4.6,0.4-5.7,1.8c-1.1,1.4-1.6,3.3-1.6,6.7c0.1,6.6,1.6,8.3,7.2,8.4
		c5.7-0.1,7.1-1.8,7.2-8.4C946.7,237.7,946.3,235.8,945.1,234.4z M941.7,244.7c-0.3,0.6-1.1,0.9-2.2,0.9c-1,0-1.9-0.3-2.2-0.9
		s-0.5-1.9-0.5-3.6s0.2-2.9,0.5-3.6c0.3-0.7,1.1-0.9,2.2-0.9c1,0,1.9,0.3,2.2,0.9c0.3,0.6,0.5,1.9,0.5,3.6S942,244,941.7,244.7z
		 M855.1,222v4.2c0,0.2,0,0.3-0.1,0.3c-0.2,0.3-0.6,0.5-1.4,0.6c-0.7,0.2-1.6,0.2-2.6,0.2c-0.9,0-1.8-0.1-2.3-0.3
		c-0.6-0.2-1-0.5-1.5-0.9c-0.7-0.9-0.9-2.3-0.9-4.6c0-2.3,0.3-3.8,0.9-4.6s1.9-1.2,3.8-1.2c1.4,0,2.4,0.1,3.1,0.2
		c0.2,0.1,0.3,0.2,0.3,0.4v1.1c0,0.2-0.1,0.2-0.2,0.2H851c-0.9,0-1.7,0.3-2,0.7c-0.3,0.5-0.4,1.6-0.4,3s0.2,2.5,0.4,3
		c0.3,0.5,0.9,0.7,2,0.7h1.9v-3.4c0-0.2,0.1-0.2,0.2-0.2h1.8C855,221.8,855.1,221.8,855.1,222z M865,226.2c0.6-0.8,0.9-2.3,0.9-4.6
		c0-2.3-0.2-3.6-0.9-4.6c-0.7-0.9-1.9-1.2-3.8-1.2s-3,0.3-3.8,1.2c-0.7,0.9-0.9,2.3-0.9,4.6c0,2.3,0.3,3.8,0.9,4.6
		c0.6,0.8,1.9,1.3,3.8,1.3S864.4,227,865,226.2z M859.3,224.7c-0.3-0.5-0.4-1.6-0.4-2.9c0-1.5,0.2-2.5,0.4-3c0.3-0.5,0.9-0.7,2-0.7
		c1,0,1.7,0.2,2,0.7c0.3,0.5,0.4,1.6,0.4,3s-0.2,2.4-0.4,2.9c-0.3,0.5-0.9,0.7-2,0.7C860.2,225.4,859.6,225.1,859.3,224.7z
		 M867.8,227.3c1.3,0.1,2.7,0.2,4.5,0.2c1.4,0,2.4-0.2,3-0.7c0.6-0.5,0.9-1.3,0.9-2.4c0-1.7-0.5-2.5-1.9-2.6l0,0
		c1.3-0.2,1.7-0.9,1.7-2.6c0-1.1-0.3-2-0.9-2.4s-1.7-0.7-3.1-0.7c-1.6,0-2.9,0.1-4.1,0.2c-0.2,0-0.2,0-0.2,0.2v10.8
		C867.6,227.2,867.7,227.3,867.8,227.3z M869.9,217.9h1.8c1.5,0,2,0.3,2,1.5c0,0.6-0.2,0.9-0.4,1.1c-0.3,0.2-0.9,0.3-1.8,0.3H870
		L869.9,217.9L869.9,217.9z M869.9,222.5h2.2c1.3,0,1.8,0.3,1.8,1.6c0,1-0.5,1.4-1.8,1.4h-2.2V222.5z M877.8,227.1v-10.9
		c0-0.2,0.1-0.2,0.2-0.2h1.9c0.2,0,0.2,0.1,0.2,0.2v10.9c0,0.2-0.1,0.2-0.2,0.2H878C877.9,227.4,877.8,227.3,877.8,227.1z
		 M882.1,227.1v-10.9c0-0.2,0.1-0.2,0.2-0.2h7.4c0.2,0,0.2,0.1,0.2,0.2v1.6c0,0.2-0.1,0.2-0.2,0.2h-5.3v2.8h4.8
		c0.2,0,0.2,0.1,0.2,0.2v1.5c0,0.2-0.1,0.2-0.2,0.2h-4.8v2.6h5.3c0.2,0,0.2,0.1,0.2,0.2v1.6c0,0.2-0.1,0.2-0.2,0.2h-7.4
		C882.2,227.4,882.1,227.3,882.1,227.1z M891.7,227.4h1.9c0.2,0,0.2,0,0.2-0.2v-3.9h1.4l2.4,3.9c0.2,0.2,0.3,0.3,0.6,0.3h1.9
		c0.2,0,0.3-0.1,0.2-0.3l-2.5-4c0.8-0.2,1.4-0.5,1.8-1c0.3-0.5,0.5-1.4,0.5-2.4c0-1.5-0.3-2.4-0.9-2.9c-0.6-0.5-1.8-0.8-3.3-0.8
		c-1.5,0-2.7,0.1-4,0.2c-0.2,0-0.2,0-0.2,0.2v10.8C891.5,227.3,891.5,227.4,891.7,227.4z M893.8,217.9h1.6c0.8,0,1.5,0.1,1.8,0.3
		s0.4,0.7,0.4,1.5s-0.2,1.3-0.4,1.5c-0.3,0.2-0.8,0.3-1.8,0.3h-1.6V217.9z M903.6,227.4h-1.9c-0.2,0-0.2-0.1-0.2-0.2v-10.9
		c0-0.2,0.1-0.2,0.2-0.2h1.5c0.6,0.1,0.6,0.1,0.9,0.5l4.6,6.7v-6.9c0-0.2,0.1-0.2,0.2-0.2h1.9c0.2,0,0.2,0.1,0.2,0.2v10.9
		c0,0.2-0.1,0.2-0.2,0.2h-1.4c-0.3,0-0.5-0.1-0.7-0.3l-4.8-7.1v7.2C903.9,227.3,903.8,227.4,903.6,227.4z M921.3,226.2
		c0.6-0.8,0.9-2.3,0.9-4.6c0-2.3-0.2-3.6-0.9-4.6c-0.7-0.9-1.9-1.2-3.8-1.2c-1.9,0-3,0.3-3.8,1.2c-0.7,0.9-0.9,2.3-0.9,4.6
		c0,2.3,0.3,3.8,0.9,4.6c0.6,0.8,1.9,1.3,3.8,1.3C919.4,227.5,920.5,227,921.3,226.2z M919.4,224.7c-0.3,0.5-0.9,0.7-2,0.7
		s-1.7-0.3-2-0.7c-0.3-0.5-0.4-1.6-0.4-2.9c0-1.5,0.2-2.5,0.4-3c0.3-0.5,0.9-0.7,2-0.7s1.7,0.2,2,0.7c0.3,0.5,0.4,1.6,0.4,3
		C919.9,223.1,919.7,224.1,919.4,224.7z M936.3,221.6c0-2.1-0.3-3.5-1.1-4.5c-0.7-0.9-2-1.4-3.6-1.4s-3,0.1-4.3,0.2
		c-0.2,0-0.2,0-0.2,0.2v10.8c0,0.1,0,0.2,0.2,0.2c1.2,0.1,2.7,0.2,4.3,0.2c1.8,0,2.9-0.4,3.6-1.4
		C935.8,225.2,936.3,223.7,936.3,221.6z M931.5,225.4h-2.2v-7.5h2.1c1.9,0,2.5,1.1,2.5,3.8C933.9,224.4,933.2,225.4,931.5,225.4z
		 M937.8,227.1v-10.9c0-0.2,0.1-0.2,0.2-0.2h7.4c0.2,0,0.2,0.1,0.2,0.2v1.6c0,0.2-0.1,0.2-0.2,0.2h-5.3v2.8h4.8
		c0.2,0,0.2,0.1,0.2,0.2v1.5c0,0.2-0.1,0.2-0.2,0.2h-4.8v2.6h5.3c0.2,0,0.2,0.1,0.2,0.2v1.6c0,0.2-0.1,0.2-0.2,0.2H938
		C937.9,227.4,937.8,227.3,937.8,227.1z"/>
	<path fill="#4BA6DE" d="M988.4,238.5c0,1.5-1.3,2.7-2.7,2.7c-1.5,0-2.7-1.3-2.7-2.7c0-1.5,1.3-2.7,2.7-2.7
		C987.3,235.8,988.4,237.1,988.4,238.5z M994.1,233.8v9.3h-16.5v-9.3H994.1z M989.3,238.5c0-2-1.6-3.5-3.5-3.5c-2,0-3.5,1.6-3.5,3.5
		s1.6,3.5,3.5,3.5C987.7,242.1,989.3,240.5,989.3,238.5z M976.9,244.4v2.7h17.8v-2.7l-0.5-0.6h-16.7L976.9,244.4z M980.3,215.4h10.8
		h0.2l0,0v-0.9l0,0H991c-0.4-2.2-2.3-3.9-4.7-4.2v-0.4h-0.1l0,0l0,0c0-0.3-0.2-0.6-0.6-0.6c-0.2,0-0.4,0.2-0.5,0.4
		c0,0.1,0,0.1,0,0.2H985l0,0v0.4c-2.4,0.3-4.2,2-4.7,4.2H980l0,0v1l0,0L980.3,215.4L980.3,215.4z M994.7,232.4l-2.9-0.8H980l-3,0.8
		v0.8h17.8L994.7,232.4L994.7,232.4z M980.1,229.9l-0.2,0.4l0,0v0.6h11.9v-0.6l-0.3-0.4H980.1z M999.8,246.8l-0.3-0.6v-0.7l0,0
		l0.3-0.4l-0.9-5.9l-0.9-0.7L997,239L996,245l0.3,0.4v0.7l-0.3,0.6v0.9h-10.2l0,0h-10.2v-0.9l-0.3-0.6v-0.7l0.3-0.4l-0.9-5.9
		l-0.9-0.7l-0.9,0.7l-0.9,5.9l0.3,0.4l0,0v0.7l-0.3,0.6v0.9h-1.1l0.7,1.8v0.4c1-0.2,2.3-0.4,4.1-0.4c3,0,4.6,0.5,5.9,1
		c1.3,0.4,2.2,0.8,4.5,0.8c2.2,0,3.1-0.3,4.5-0.8c1.4-0.5,2.9-1,5.9-1c1.8,0,3,0.2,4.1,0.4v-0.4l0.7-1.8h-1.1v-0.9H999.8z
		 M992,228.1h-0.5v1.1h-5.6h-5.6v-1.1h-0.5v-0.6h0.4l0,0h0.1v-0.2l0.2-0.3v-5.8l-0.2-0.4v-0.3h0.2v-2.8h5.4h5.4v2.8h0.2v0.3
		l-0.2,0.4v5.8l0.2,0.3v0.2h0.1h0.2h0.2V228.1L992,228.1z M983.1,219.7c0-0.5-0.4-0.8-0.9-0.8h-0.1c-0.5,0-0.9,0.4-0.9,0.8v0.7h0.2
		v0.3l-0.2,0.4v5.8l0.2,0.3v0.2h0.1l0,0h1.1h0.1h0.1v-0.2l0.2-0.3v-5.8l-0.2-0.4v-0.3h0.2L983.1,219.7L983.1,219.7z M987.5,220
		c0-0.9-0.7-1.7-1.8-1.7c-1,0-1.8,0.7-1.8,1.7v0.4h0.2v0.3l-0.2,0.4v5.8l0.2,0.3v0.2h0.2h0.2h1.1h1.1h0.2h0.2v-0.2l0.2-0.3v-5.8
		l-0.2-0.4v-0.3h0.2V220L987.5,220z M990.2,219.7c0-0.5-0.4-0.8-0.9-0.8h-0.1c-0.5,0-0.9,0.4-0.9,0.8v0.7h0.2v0.3l-0.2,0.4v5.8
		l0.2,0.3v0.2h0.1h0.2h0.7h0.2h0.1v-0.2l0.2-0.3v-5.8l-0.2-0.4v-0.3h0.2v-0.7H990.2z M991.9,217.1l0.3-1h-12.9l0.3,1H991.9z
		 M999.1,256.2c-0.7-0.2-1.7-0.3-3-0.3c-2.3,0-3.3,0.3-4.6,0.8c-1.4,0.4-2.8,1-5.7,1c-2.9,0-4.5-0.5-5.7-1c-1.3-0.4-2.3-0.8-4.6-0.8
		c-1.4,0-2.2,0.1-2.9,0.3c4,2.3,8.5,3.5,13.3,3.5S995.2,258.4,999.1,256.2z M1003.1,253.3c-0.9-0.2-1.8-0.4-2.5-0.7
		c-1.3-0.4-2.3-0.8-4.6-0.8c-2.3,0-3.3,0.3-4.6,0.8c-1.4,0.4-2.8,1-5.7,1c-2.9,0-4.5-0.5-5.7-1c-1.3-0.4-2.3-0.8-4.6-0.8
		c-2.3,0-3.3,0.3-4.6,0.8c-0.7,0.3-1.5,0.5-2.4,0.7c0.6,0.5,1.3,1,2,1.5c1.3-0.4,2.7-0.8,5.1-0.8c2.9,0,4.5,0.5,5.7,1
		c1.3,0.4,2.3,0.8,4.6,0.8c2.3,0,3.3-0.3,4.6-0.8c1.4-0.4,2.8-1,5.7-1c2.4,0,4,0.3,5.1,0.8C1001.9,254.4,1002.5,253.8,1003.1,253.3z
		 M1012.8,232.7c0-14.9-12.1-27.1-27.1-27.1s-27.1,12.1-27.1,27.1c0,7.5,3,14.2,7.9,19.1c1.3-0.1,2.1-0.4,3-0.7c1.4-0.4,2.8-1,5.7-1
		c2.9,0,4.5,0.5,5.7,1c1.3,0.4,2.3,0.8,4.6,0.8c2.3,0,3.3-0.3,4.6-0.8c1.4-0.4,2.8-1,5.7-1c2.9,0,4.5,0.5,5.7,1
		c0.9,0.3,1.8,0.6,3,0.7C1009.8,246.9,1012.8,240.1,1012.8,232.7z M1014.6,232.7c0,15.9-12.9,28.9-28.9,28.9s-28.9-12.9-28.9-28.9
		s12.9-28.9,28.9-28.9S1014.6,216.8,1014.6,232.7z"/>
</g>
</svg>
