<?xml version="1.0" encoding="utf-8"?>
<!-- Generator: Adobe Illustrator 18.0.0, SVG Export Plug-In . SVG Version: 6.00 Build 0)  -->
<!DOCTYPE svg PUBLIC "-//W3C//DTD SVG 1.1//EN" "http://www.w3.org/Graphics/SVG/1.1/DTD/svg11.dtd">
<svg version="1.1" xmlns="http://www.w3.org/2000/svg" xmlns:xlink="http://www.w3.org/1999/xlink" x="0px" y="0px"
	 viewBox="1252.9 75.3 253.3 82.7" enable-background="new 1252.9 75.3 253.3 82.7" xml:space="preserve">
<g id="Capa_1">
</g>
<g id="Capa_5">
</g>
<g id="Capa_2">
</g>
<g id="Capa_3">
</g>
<g id="Capa_4">
	<g>
		<rect x="1253.4" y="75.3" fill="#EF7C3B" width="252.8" height="82.7"/>
		<rect x="1252.9" y="75.3" fill="#4DA6DE" width="87" height="82.7"/>
		<path fill="#FFFFFF" d="M1299.4,123.2c0,1.7-1.3,3-3,3c-1.7,0-3-1.3-3-3c0-1.7,1.3-3,3-3C1298.1,120.2,1299.4,121.5,1299.4,123.2
			 M1305.6,128.3h-18.4V118h18.4V128.3z M1300.4,123.2c0-2.2-1.8-3.9-3.9-3.9c-2.2,0-3.9,1.8-3.9,3.9c0,2.2,1.8,3.9,3.9,3.9
			C1298.6,127.1,1300.4,125.3,1300.4,123.2 M1286.5,129.7v3h19.9v-3.1l-0.6-0.7h-18.6L1286.5,129.7z M1290.4,97.4h12.1h0.2h0v-1.1h0
			h-0.3c-0.5-2.4-2.6-4.3-5.2-4.6v-0.5h-0.1h0c0-0.4-0.3-0.7-0.7-0.7c-0.3,0-0.5,0.2-0.6,0.4c0,0.1,0,0.1,0,0.2h-0.1h0v0.5
			c-2.6,0.3-4.7,2.2-5.2,4.6h-0.3h0v1.1h0H1290.4z M1306.4,116.4l-3.3-1h-13.2l-3.4,1v1h19.9V116.4z M1290.1,113.5l-0.3,0.5h0v0.7
			h13.2V114l-0.4-0.5H1290.1z M1312.1,132.4l-0.4-0.7v-0.8h0l0.4-0.4l-1.1-6.6l-1.1-0.8l-1.1,0.8l-1.1,6.6l0.4,0.4l0,0.8l-0.4,0.7
			v1.1h-11.3h0h-11.3v-1.1l-0.4-0.7v-0.8l0.4-0.4l-1.1-6.6l-1.1-0.8l-1.1,0.8l-1.1,6.6l0.4,0.4h0v0.8l-0.4,0.7v1.1h-1.3l0.8,2v0.5
			c1.1-0.3,2.6-0.5,4.5-0.5c3.3,0,5.1,0.6,6.6,1.1c1.3,0.5,2.5,0.9,4.9,0.9c2.4,0,3.5-0.4,4.9-0.9c1.5-0.5,3.3-1.1,6.6-1.1
			c2,0,3.4,0.2,4.5,0.5v-0.5l0.8-2h-1.3V132.4z M1303.3,111.6h-0.6v1.3h-6.3h-6.3v-1.3h-0.6v-0.7h0.5h0h0.1v-0.2l0.2-0.4v-6.6
			l-0.2-0.5V103h0.2v-3.1h6.1h6v3.1h0.2v0.3l-0.2,0.5v6.6l0.2,0.4v0.2h0.1h0.3h0.2V111.6z M1293.5,102.2c0-0.5-0.4-1-1-1h-0.1
			c-0.6,0-1,0.4-1,1v0.8h0.2v0.3l-0.2,0.5v6.6l0.2,0.4v0.2h0.1h0h1.3h0.1h0.1v-0.2l0.2-0.4v-6.6l-0.2-0.5V103h0.2V102.2z
			 M1298.4,102.5c0-1-0.9-1.8-1.9-1.8c-1.1,0-1.9,0.8-1.9,1.8v0.5h0.2v0.3l-0.2,0.5v6.6l0.2,0.4v0.2h0.2h0.2h1.3h1.3h0.2h0.2v-0.2
			l0.2-0.4v-6.6l-0.2-0.5V103h0.2V102.5z M1301.4,102.2c0-0.5-0.4-1-1-1h-0.1c-0.6,0-1,0.4-1,1v0.8h0.2v0.3l-0.2,0.5v6.6l0.2,0.4
			v0.2h0.1h0.2h0.8h0.3h0.1v-0.2l0.2-0.4v-6.6l-0.2-0.5V103h0.2V102.2z M1303.3,99.2l0.4-1.1h-14.4l0.4,1.1H1303.3z M1311.3,142.9
			c-0.9-0.2-1.9-0.3-3.3-0.3c-2.5,0-3.7,0.4-5.1,0.9c-1.5,0.5-3.2,1.1-6.4,1.1c-3.2,0-4.9-0.6-6.4-1.1c-1.4-0.5-2.6-0.9-5.1-0.9
			c-1.4,0-2.5,0.1-3.3,0.3c4.4,2.5,9.5,3.9,14.9,3.9C1301.8,146.8,1306.9,145.4,1311.3,142.9 M1315.8,139.7
			c-1.1-0.2-1.9-0.5-2.7-0.8c-1.4-0.5-2.6-0.9-5.1-0.9c-2.5,0-3.7,0.4-5.1,0.9c-1.5,0.5-3.2,1.1-6.4,1.1c-3.2,0-4.9-0.6-6.4-1.1
			c-1.4-0.5-2.6-0.9-5.1-0.9s-3.7,0.4-5.1,0.9c-0.8,0.3-1.6,0.6-2.7,0.8c0.7,0.6,1.4,1.2,2.2,1.7c1.3-0.4,3-0.9,5.7-0.9
			c3.2,0,4.9,0.6,6.4,1.1c1.4,0.5,2.6,0.9,5.1,0.9c2.5,0,3.7-0.4,5.1-0.9c1.5-0.5,3.2-1.1,6.4-1.1c2.7,0,4.3,0.4,5.7,0.9
			C1314.4,140.9,1315.1,140.3,1315.8,139.7 M1326.6,116.7c0-16.6-13.5-30.1-30.1-30.1s-30.1,13.5-30.1,30.1c0,8.3,3.4,15.8,8.8,21.3
			c1.4-0.1,2.3-0.5,3.4-0.8c1.5-0.5,3.2-1.1,6.4-1.1c3.2,0,4.9,0.6,6.4,1.1c1.4,0.5,2.6,0.9,5.1,0.9c2.5,0,3.7-0.4,5.1-0.9
			c1.5-0.5,3.2-1.1,6.4-1.1c3.2,0,4.9,0.6,6.4,1.1c1,0.4,1.9,0.7,3.4,0.8C1323.2,132.5,1326.6,125,1326.6,116.7 M1328.6,116.7
			c0,17.7-14.4,32.1-32.1,32.1c-17.7,0-32.1-14.4-32.1-32.1c0-17.7,14.4-32.1,32.1-32.1C1314.2,84.5,1328.6,98.9,1328.6,116.7"/>
		<g>
			<path fill="#FFFFFF" d="M1377.4,119.8c1.4,1,1.9,2.7,1.9,5.6c0,2.2-0.3,3.8-1,4.7c-0.7,0.9-1.8,1.5-3.6,1.7l4.7,7.5
				c0.2,0.3,0.1,0.6-0.3,0.6h-1.8c-0.6,0-0.8-0.2-1.1-0.6l-4.6-7.3h-4.2v7.5c0,0.3-0.1,0.4-0.4,0.4h-2c-0.3,0-0.4-0.1-0.4-0.4v-20.3
				c0-0.3,0.1-0.4,0.4-0.4c1.8-0.1,3.8-0.2,6-0.2C1374.2,118.6,1376,118.8,1377.4,119.8z M1367.3,121.1v8.5h3.3c0.8,0,1.4,0,1.8,0
				c0.9,0,2-0.1,2.4-0.3c1.2-0.5,1.6-1.5,1.6-3.8c0-1.9-0.4-3.1-1.1-3.6c-0.7-0.5-2.3-0.8-4.7-0.8H1367.3z"/>
			<path fill="#FFFFFF" d="M1384,124.6c0.3,0,0.4,0.1,0.4,0.4v14.5c0,0.3-0.1,0.4-0.4,0.4h-1.8c-0.3,0-0.4-0.1-0.4-0.4V125
				c0-0.3,0.1-0.4,0.4-0.4H1384z M1386.8,118.7c0.2,0,0.3,0.1,0.3,0.3v0.2c0,0.1-0.1,0.3-0.1,0.3l-4,3.5c-0.1,0.1-0.3,0.1-0.4,0
				l-0.5-0.4c-0.1-0.1-0.2-0.3-0.1-0.4l2-3.4c0.1-0.1,0.2-0.2,0.3-0.2H1386.8z"/>
			<path fill="#FFFFFF" d="M1393.2,124.4c1.4,0,2.5,0.1,3.3,0.3c1.7,0.4,2.6,1.7,2.9,3.6c0.2,0.9,0.3,2.2,0.3,3.9
				c0,1.7-0.1,2.9-0.3,3.9c-0.3,1.9-1.3,3.1-2.9,3.6c-0.8,0.2-1.9,0.3-3.3,0.3c-1.4,0-2.5-0.1-3.3-0.3c-1.6-0.4-2.6-1.7-2.9-3.6
				c-0.2-1-0.3-2.2-0.3-3.9c0-1.7,0.1-2.9,0.3-3.9c0.3-1.9,1.3-3.2,3-3.6C1390.7,124.6,1391.8,124.4,1393.2,124.4z M1390,127.8
				c-0.4,0.7-0.7,2.2-0.7,4.4c0,2.2,0.2,3.7,0.7,4.4c0.4,0.7,1.5,1,3.2,1c1.7,0,2.7-0.3,3.1-1c0.4-0.7,0.7-2.2,0.7-4.4
				c0-2.3-0.2-3.7-0.7-4.4c-0.4-0.7-1.5-1-3.1-1C1391.5,126.8,1390.5,127.1,1390,127.8z"/>
			<path fill="#FFFFFF" d="M1421.3,118.8c0.3,0,0.4,0.2,0.4,0.5v1.3c0,0.3-0.1,0.4-0.4,0.4h-5.2c-2.4,0-3.9,0.6-4.6,1.7
				c-0.7,1.1-1.1,3.3-1.1,6.6c0,3.3,0.4,5.5,1.1,6.6c0.7,1.1,2.2,1.7,4.6,1.7h5.2c0.3,0,0.4,0.1,0.4,0.4v1.3c0,0.3-0.1,0.4-0.4,0.5
				c-1.2,0.2-2.9,0.3-5.2,0.3c-3.5,0-5.5-0.6-6.8-2.3c-1.3-1.7-1.7-4.2-1.7-8.5s0.4-6.7,1.7-8.5c1.3-1.8,3.3-2.3,6.8-2.3
				C1418.3,118.6,1420,118.7,1421.3,118.8z"/>
			<path fill="#FFFFFF" d="M1435.9,124.6c0.3,0,0.4,0.1,0.4,0.4v14.2c0,0.3-0.1,0.4-0.4,0.4c-1.6,0.3-3.5,0.4-5.8,0.4
				c-1.4,0-2.4-0.1-3.2-0.2c-0.7-0.1-1.4-0.4-1.9-0.9c-1.1-0.9-1.4-2.5-1.4-5.5V125c0-0.3,0.2-0.4,0.5-0.4h1.8
				c0.3,0,0.4,0.1,0.4,0.4v8.3c0,2.1,0.1,3.2,0.8,3.8c0.7,0.6,1.2,0.6,2.8,0.6h3.8V125c0-0.3,0.1-0.4,0.4-0.4H1435.9z"/>
			<path fill="#FFFFFF" d="M1450.5,128.8v9.8c0,0.4-0.2,0.6-0.5,0.8c-1.1,0.4-3.2,0.6-6.2,0.6c-2,0-3.4-0.3-4.2-0.9
				c-0.8-0.6-1.2-1.8-1.2-3.6c0-3.2,1.6-4.3,5-4.3l4.5,0v-1.9c0-1.8-1-2.5-3.6-2.5h-4.2c-0.3,0-0.4-0.1-0.4-0.4v-1.1
				c0-0.3,0.1-0.4,0.4-0.4c1.3-0.2,2.7-0.3,4.2-0.3C1448.6,124.4,1450.5,125.8,1450.5,128.8z M1447.9,133.4h-4.5
				c-1.6,0-2.4,0.6-2.4,2.1c0,1.8,0.8,2.3,3.2,2.3c1.5,0,2.7-0.1,3.6-0.3V133.4z"/>
			<path fill="#FFFFFF" d="M1460.8,124.8c0.3,0.1,0.4,0.3,0.4,0.5v1.2c0,0.3-0.1,0.4-0.4,0.4h-2.4c-1.9,0-2.4,0.3-2.4,1.6v11.1
				c0,0.3-0.1,0.4-0.4,0.4h-1.8c-0.3,0-0.4-0.1-0.4-0.4v-11.8c0-1.2,0.5-2.1,1.1-2.5c0.3-0.2,0.7-0.4,1.1-0.5
				c0.9-0.3,1.4-0.3,2.2-0.3C1459.2,124.4,1460.2,124.6,1460.8,124.8z"/>
			<path fill="#FFFFFF" d="M1466.6,120.4c0.3-0.1,0.5,0,0.5,0.4v3.9h2.9c0.3,0,0.4,0.1,0.4,0.4v1.3c0,0.3-0.1,0.4-0.4,0.4h-2.9v9.4
				c0,1.2,0.3,1.5,1.8,1.5h1.3c0.3,0,0.4,0.1,0.4,0.4v1.3c0,0.3-0.1,0.4-0.4,0.4c-0.4,0.1-1,0.2-1.6,0.2c-1.1,0-1.5,0-2.4-0.2
				c-1.2-0.3-1.8-1.1-1.9-3v-10.1h-1.6c-0.3,0-0.4-0.1-0.4-0.4V125c0-0.3,0.1-0.4,0.4-0.4h1.6v-3.4c0-0.3,0.1-0.4,0.4-0.4
				L1466.6,120.4z"/>
			<path fill="#FFFFFF" d="M1478.4,124.4c1.4,0,2.5,0.1,3.3,0.3c1.7,0.4,2.6,1.7,2.9,3.6c0.2,0.9,0.3,2.2,0.3,3.9
				c0,1.7-0.1,2.9-0.3,3.9c-0.3,1.9-1.3,3.1-2.9,3.6c-0.8,0.2-1.9,0.3-3.3,0.3c-1.4,0-2.5-0.1-3.3-0.3c-1.6-0.4-2.6-1.7-2.9-3.6
				c-0.2-1-0.3-2.2-0.3-3.9c0-1.7,0.1-2.9,0.3-3.9c0.3-1.9,1.3-3.2,3-3.6C1475.9,124.6,1477,124.4,1478.4,124.4z M1475.3,127.8
				c-0.4,0.7-0.7,2.2-0.7,4.4c0,2.2,0.2,3.7,0.7,4.4c0.4,0.7,1.5,1,3.2,1c1.7,0,2.7-0.3,3.1-1c0.4-0.7,0.7-2.2,0.7-4.4
				c0-2.3-0.2-3.7-0.7-4.4c-0.4-0.7-1.5-1-3.1-1C1476.8,126.8,1475.7,127.1,1475.3,127.8z"/>
		</g>
		<g>
			<path fill="#FFFFFF" d="M1378.9,92.8c0.3,0,0.4,0.1,0.4,0.4v3.7c0,0.3-0.1,0.4-0.4,0.4h-9.7v4.4h8.9c0.3,0,0.4,0.1,0.4,0.4v3.5
				c0,0.3-0.1,0.4-0.4,0.4h-8.9v4.2h9.7c0.3,0,0.4,0.1,0.4,0.4v3.7c0,0.3-0.1,0.4-0.4,0.4h-14.5c-0.3,0-0.4-0.1-0.4-0.4v-21
				c0-0.3,0.1-0.4,0.4-0.4H1378.9z"/>
			<path fill="#FFFFFF" d="M1392.9,99.2c0.3,0.1,0.5,0.3,0.5,0.6v2.7c0,0.3-0.2,0.4-0.5,0.4h-4.7c-1,0-1.7,0.3-2.1,0.8
				c-0.3,0.5-0.5,1.5-0.5,3.1c0,1.6,0.2,2.6,0.5,3.1c0.3,0.5,1,0.8,2.1,0.8h4.7c0.3,0,0.5,0.1,0.5,0.4v2.7c0,0.3-0.2,0.5-0.5,0.6
				c-1.2,0.3-2.8,0.4-4.8,0.4c-3.2,0-4.9-0.4-6-1.6c-1.1-1.3-1.4-3.1-1.4-6.5c0-2.7,0.2-4.3,0.8-5.6c1-2,2.8-2.4,6.6-2.5
				C1390.1,98.7,1391.7,98.9,1392.9,99.2z"/>
			<path fill="#FFFFFF" d="M1401.8,98.7c3,0,5,0.5,6,1.6c1,1.1,1.5,3.2,1.5,6.5s-0.5,5.4-1.5,6.5c-1,1.1-3,1.6-6,1.6
				c-3,0-5-0.5-6-1.6c-1-1.1-1.5-3.2-1.5-6.5s0.5-5.4,1.5-6.5C1396.8,99.3,1398.8,98.7,1401.8,98.7z M1401.8,102.9
				c-1,0-1.7,0.3-2.1,0.8c-0.3,0.5-0.5,1.5-0.5,3.1c0,1.6,0.2,2.6,0.5,3.1c0.3,0.5,1,0.8,2.1,0.8c1,0,1.7-0.3,2-0.8
				c0.3-0.5,0.5-1.5,0.5-3.1c0-1.6-0.2-2.6-0.5-3.1C1403.5,103.2,1402.8,102.9,1401.8,102.9z"/>
			<path fill="#FFFFFF" d="M1424,100.1c1.1,1,1.4,2.6,1.4,5.5v8.8c0,0.3-0.1,0.4-0.4,0.4h-4.1c-0.3,0-0.4-0.1-0.4-0.4v-7.3
				c0-2.1,0-2.9-0.4-3.5c-0.4-0.6-0.9-0.6-2.3-0.6h-1.9v11.4c0,0.3-0.1,0.4-0.4,0.4h-4.1c-0.3,0-0.4-0.1-0.4-0.4V99.7
				c0-0.3,0.1-0.4,0.4-0.4c1.4-0.3,3.8-0.5,7.2-0.5C1421.4,98.7,1422.9,99,1424,100.1z"/>
			<path fill="#FFFFFF" d="M1434.4,98.7c3,0,5,0.5,6,1.6c1,1.1,1.5,3.2,1.5,6.5s-0.5,5.4-1.5,6.5c-1,1.1-3,1.6-6,1.6
				c-3,0-5-0.5-6-1.6c-1-1.1-1.5-3.2-1.5-6.5s0.5-5.4,1.5-6.5C1429.4,99.3,1431.4,98.7,1434.4,98.7z M1434.4,102.9
				c-1,0-1.7,0.3-2.1,0.8c-0.3,0.5-0.5,1.5-0.5,3.1c0,1.6,0.2,2.6,0.5,3.1c0.3,0.5,1,0.8,2.1,0.8c1,0,1.7-0.3,2-0.8
				c0.3-0.5,0.5-1.5,0.5-3.1c0-1.6-0.2-2.6-0.5-3.1C1436.2,103.2,1435.5,102.9,1434.4,102.9z"/>
			<path fill="#FFFFFF" d="M1465.7,104.5v9.9c0,0.3-0.1,0.4-0.4,0.4h-4.1c-0.3,0-0.4-0.1-0.4-0.4v-7.3c0-1.4-0.1-2.3-0.2-2.8
				c-0.2-1.1-0.6-1.3-2.1-1.3c-0.6,0-1.1,0.1-1.8,0.1c0.2,0.6,0.3,1.4,0.3,2.5l0,8.8c0,0.3-0.1,0.4-0.4,0.4h-4.1
				c-0.3,0-0.4-0.1-0.4-0.4v-8.6c0-1.3-0.2-2-0.4-2.3c-0.3-0.3-0.9-0.4-1.8-0.4h-1.5v11.4c0,0.3-0.1,0.4-0.4,0.4h-4.1
				c-0.3,0-0.4-0.1-0.4-0.4V99.7c0-0.2,0.1-0.4,0.4-0.4c1.3-0.3,3.2-0.5,5.7-0.5c2.2,0,4,0.3,5.2,0.9c1.5-0.6,3.2-0.9,5-0.9
				C1464.1,98.7,1465.7,100.3,1465.7,104.5z"/>
			<path fill="#FFFFFF" d="M1472.2,98.9c0.3,0,0.4,0.1,0.4,0.4v15c0,0.3-0.1,0.4-0.4,0.4h-4c-0.3,0-0.4-0.1-0.4-0.4v-15
				c0-0.3,0.1-0.4,0.4-0.4H1472.2z M1475.3,92.1c0.2,0,0.3,0.1,0.3,0.3v0.2c0,0.1-0.1,0.3-0.1,0.3l-5.4,4.4c-0.1,0.1-0.3,0.1-0.4,0
				l-1.5-0.9c-0.1-0.1-0.2-0.2-0.1-0.4l2-3.8c0.1-0.1,0.2-0.2,0.3-0.2H1475.3z"/>
			<path fill="#FFFFFF" d="M1488,103.8v9.6c0,0.5-0.2,0.8-0.7,0.9c-1.9,0.4-4.1,0.6-6.4,0.6c-1,0-1.8,0-2.5-0.1
				c-0.6,0-1.2-0.1-1.9-0.3c-1.8-0.6-2.5-1.8-2.6-4.6c0-1.9,0.5-3.1,1.5-3.8c1-0.6,2.5-1,4.6-1l3.1,0v-0.6c0-1.1-0.7-1.7-2.1-1.7
				h-5.5c-0.3,0-0.4-0.1-0.4-0.4v-2.9c0-0.3,0.1-0.4,0.4-0.4c1.5-0.3,3.4-0.5,5.5-0.5C1487.1,98.8,1488,100.8,1488,103.8z
				 M1483.1,108.1h-2.6c-1.3,0-1.8,0.4-1.8,1.5c0,1.1,0.4,1.4,2,1.4c1,0,1.8-0.1,2.4-0.2V108.1z"/>
		</g>
	</g>
</g>
</svg>
