<?xml version="1.0" encoding="utf-8"?>
<!-- Generator: Adobe Illustrator 18.0.0, SVG Export Plug-In . SVG Version: 6.00 Build 0)  -->
<!DOCTYPE svg PUBLIC "-//W3C//DTD SVG 1.1//EN" "http://www.w3.org/Graphics/SVG/1.1/DTD/svg11.dtd">
<svg version="1.1" id="Capa_1" xmlns="http://www.w3.org/2000/svg" xmlns:xlink="http://www.w3.org/1999/xlink" x="0px" y="0px"
	 viewBox="909.5 237.7 197.5 57.7" enable-background="new 909.5 237.7 197.5 57.7" xml:space="preserve">
<g>
	<path fill="#FFFFFF" d="M919.5,277.2c2.2-0.5,3-2,3-5c0-2.1-0.4-3.5-1.4-4.4c-0.9-0.8-2.5-1.3-4.7-1.3c-2.4,0-4.6,0.1-6.7,0.3
		c-0.2,0-0.3,0.1-0.3,0.3V283c0,0.3,0.1,0.3,0.3,0.3h3.8c0.3,0,0.3-0.1,0.3-0.3v-5.5h0.8l3.4,5.4c0.2,0.3,0.4,0.4,0.8,0.4h3.9
		c0.3,0,0.4-0.2,0.3-0.4L919.5,277.2z M916,274.1h-2.1v-3.9h2.1c1.6,0,2.1,0.5,2.1,2C918,273.7,917.6,274.1,916,274.1z M929.1,267
		v15.9c0,0.2-0.1,0.3-0.3,0.3h-3.9c-0.2,0-0.3-0.1-0.3-0.3V267c0-0.2,0.1-0.3,0.3-0.3h3.8C929,266.6,929.1,266.8,929.1,267z
		 M930.2,263.3l-2.9,2.3c-0.1,0.1-0.2,0.1-0.3,0l-1.4-0.7c-0.1-0.1-0.1-0.2-0.1-0.3l0.8-1.7c0.1-0.1,0.2-0.2,0.3-0.2h3.3
		C930.3,262.8,930.4,263.1,930.2,263.3z M938,266.4c-2.9,0-4.6,0.4-5.7,1.8c-1.1,1.4-1.6,3.3-1.6,6.7c0.1,6.6,1.6,8.3,7.2,8.4
		c5.7-0.1,7.1-1.8,7.2-8.4c0-3.3-0.4-5.3-1.6-6.7C942.6,267,941,266.4,938,266.4z M940.2,278.5c-0.3,0.6-1.1,0.9-2.2,0.9
		c-1,0-1.9-0.3-2.2-0.9c-0.3-0.6-0.5-1.9-0.5-3.6c0-1.8,0.2-2.9,0.5-3.6c0.3-0.6,1.1-0.9,2.2-0.9c1,0,1.9,0.3,2.2,0.9
		c0.3,0.6,0.5,1.9,0.5,3.6C940.8,276.8,940.6,277.9,940.2,278.5z M962.8,267.7v2.4c0,0.2-0.1,0.3-0.3,0.3h-4.7c-1,0-1.8,0.3-2.1,0.9
		s-0.5,1.9-0.5,3.6c0,1.8,0.2,3,0.5,3.6s1,0.9,2.1,0.9h4.7c0.2,0,0.3,0.1,0.3,0.3v2.4c0,0.4-0.2,0.6-0.6,0.7c-1,0.3-2.5,0.4-4.4,0.4
		c-2.8,0-4.7-0.6-5.6-1.8c-0.9-1.1-1.5-3.4-1.5-6.7c0-3.3,0.3-5.3,1.5-6.7c1.1-1.4,2.8-1.8,5.6-1.8c1.8,0,3.2,0.2,4.4,0.4
		C962.6,267.1,962.8,267.3,962.8,267.7z M978.5,267v8c0,2.8-0.3,4.5-0.8,5.8c-0.9,2-2.7,2.5-6.1,2.5c-2.3,0-3.8-0.3-4.9-1
		c-1.7-1.3-2.1-3.3-2.1-7.4v-8c0-0.2,0.1-0.3,0.3-0.3h3.8c0.2,0,0.3,0.1,0.3,0.3v8c0,1.9,0.2,3,0.5,3.6s1,0.9,2.1,0.9
		s1.8-0.3,2.1-0.9c0.3-0.6,0.5-1.8,0.5-3.6v-8c0-0.2,0.1-0.3,0.3-0.3h3.8C978.4,266.6,978.5,266.8,978.5,267z M989.8,266.9
		c-0.4-0.3-1.4-0.4-2.9-0.4c-1.5,0-2.5,0.1-2.9,0.4c-0.4,0.3-0.8,0.9-1.1,2.2l-3.8,13.9c0,0.2,0,0.3,0.3,0.3h3.6
		c0.2,0,0.2-0.1,0.3-0.3l1.1-4.2h5l1.1,4.2c0.1,0.3,0.1,0.3,0.3,0.3h3.6c0.2,0,0.3-0.1,0.3-0.3l-3.8-13.9
		C990.6,267.9,990.2,267.2,989.8,266.9z M985.4,275.2l1.4-5c0.1-0.2,0.3-0.2,0.3,0l1.4,5H985.4z M1006.1,277.2c2.2-0.5,3-2,3-5
		c0-2.1-0.4-3.5-1.4-4.4c-0.9-0.8-2.5-1.3-4.7-1.3c-2.4,0-4.6,0.1-6.7,0.3c-0.2,0-0.3,0.1-0.3,0.3V283c0,0.3,0.1,0.3,0.3,0.3h3.8
		c0.3,0,0.3-0.1,0.3-0.3v-5.5h0.8l3.4,5.4c0.2,0.3,0.4,0.4,0.8,0.4h3.9c0.3,0,0.4-0.2,0.3-0.4L1006.1,277.2z M1002.6,274.1h-2.1
		v-3.9h2.1c1.6,0,2.1,0.5,2.1,2C1004.6,273.7,1004.2,274.1,1002.6,274.1z M1023.6,267v3.2c0,0.2-0.1,0.3-0.3,0.3h-4.1V283
		c0,0.2-0.1,0.3-0.3,0.3h-3.8c-0.2,0-0.3-0.1-0.3-0.3v-12.5h-4.1c-0.2,0-0.3-0.1-0.3-0.3V267c0-0.2,0.1-0.3,0.3-0.3h12.5
		C1023.5,266.6,1023.6,266.8,1023.6,267z M1037.5,268.3c-1.1-1.4-2.8-1.8-5.7-1.8c-2.9,0-4.6,0.4-5.7,1.8c-1.1,1.4-1.6,3.3-1.6,6.7
		c0.1,6.6,1.6,8.3,7.2,8.4c5.7-0.1,7.1-1.8,7.2-8.4C1039.1,271.5,1038.7,269.7,1037.5,268.3z M1034.1,278.5
		c-0.3,0.6-1.1,0.9-2.2,0.9c-1,0-1.9-0.3-2.2-0.9c-0.3-0.6-0.5-1.9-0.5-3.6c0-1.8,0.2-2.9,0.5-3.6c0.3-0.6,1.1-0.9,2.2-0.9
		c1,0,1.9,0.3,2.2,0.9c0.3,0.6,0.5,1.9,0.5,3.6C1034.6,276.6,1034.4,277.9,1034.1,278.5z M947.5,255.8v4.2c0,0.2,0,0.3-0.1,0.3
		c-0.2,0.3-0.6,0.5-1.4,0.6c-0.7,0.1-1.6,0.2-2.6,0.2c-0.9,0-1.8-0.1-2.3-0.3c-0.5-0.2-1-0.5-1.5-0.9c-0.7-0.9-0.9-2.3-0.9-4.6
		c0-2.3,0.3-3.8,0.9-4.6s1.9-1.2,3.8-1.2c1.4,0,2.4,0.1,3.1,0.2c0.2,0.1,0.3,0.2,0.3,0.4v1.1c0,0.2-0.1,0.2-0.2,0.2h-3.2
		c-0.9,0-1.7,0.3-2,0.7c-0.3,0.5-0.4,1.6-0.4,3c0,1.5,0.2,2.5,0.4,3c0.3,0.5,0.9,0.7,2,0.7h1.9v-3.4c0-0.2,0.1-0.2,0.2-0.2h1.8
		C947.4,255.6,947.5,255.7,947.5,255.8z M957.4,260.1c0.6-0.8,0.9-2.3,0.9-4.6s-0.2-3.6-0.9-4.6c-0.7-0.9-1.9-1.3-3.8-1.3
		s-3,0.3-3.8,1.3c-0.7,0.9-0.9,2.3-0.9,4.6s0.3,3.8,0.9,4.6c0.6,0.8,1.9,1.3,3.8,1.3C955.5,261.2,956.8,260.9,957.4,260.1z
		 M951.7,258.5c-0.3-0.5-0.4-1.6-0.4-2.9c0-1.5,0.2-2.5,0.4-3c0.3-0.5,0.9-0.7,2-0.7c1,0,1.7,0.2,2,0.7c0.3,0.5,0.4,1.6,0.4,3
		s-0.2,2.4-0.4,2.9c-0.3,0.5-0.9,0.7-2,0.7C952.6,259.3,952,259,951.7,258.5z M960.2,261.1c1.3,0.1,2.7,0.2,4.5,0.2
		c1.4,0,2.4-0.2,3-0.7c0.6-0.4,0.9-1.3,0.9-2.4c0-1.7-0.5-2.5-1.9-2.6l0,0c1.3-0.2,1.7-0.9,1.7-2.6c0-1.1-0.3-2-0.9-2.4
		c-0.6-0.4-1.7-0.7-3.1-0.7c-1.6,0-2.9,0.1-4.1,0.2c-0.2,0-0.2,0-0.2,0.2v10.8C960,261,960.1,261.1,960.2,261.1z M962.3,251.8h1.8
		c1.5,0,2,0.3,2,1.5c0,0.6-0.2,0.9-0.4,1.1c-0.3,0.2-0.9,0.3-1.8,0.3h-1.5L962.3,251.8L962.3,251.8z M962.3,256.3h2.2
		c1.3,0,1.8,0.3,1.8,1.6c0,1-0.5,1.4-1.8,1.4h-2.2V256.3z M970.2,261v-10.9c0-0.2,0.1-0.2,0.2-0.2h1.9c0.2,0,0.2,0.1,0.2,0.2V261
		c0,0.2-0.1,0.2-0.2,0.2h-1.9C970.3,261.2,970.2,261.1,970.2,261z M974.5,261v-10.9c0-0.2,0.1-0.2,0.2-0.2h7.4
		c0.2,0,0.2,0.1,0.2,0.2v1.6c0,0.2-0.1,0.2-0.2,0.2h-5.3v2.8h4.8c0.2,0,0.2,0.1,0.2,0.2v1.5c0,0.2-0.1,0.2-0.2,0.2h-4.8v2.6h5.3
		c0.2,0,0.2,0.1,0.2,0.2v1.6c0,0.2-0.1,0.2-0.2,0.2h-7.4C974.6,261.2,974.5,261.1,974.5,261z M984.1,261.2h1.9c0.2,0,0.2,0,0.2-0.2
		v-3.9h1.4l2.4,3.9c0.2,0.2,0.3,0.3,0.6,0.3h1.9c0.2,0,0.3-0.1,0.2-0.3l-2.5-4c0.8-0.2,1.4-0.5,1.8-1c0.3-0.5,0.5-1.4,0.5-2.4
		c0-1.5-0.3-2.4-0.9-2.9c-0.6-0.5-1.8-0.8-3.3-0.8c-1.5,0-2.7,0.1-4,0.2c-0.2,0-0.2,0-0.2,0.2v10.8
		C983.9,261.1,983.9,261.2,984.1,261.2z M986.2,251.8h1.6c0.8,0,1.5,0.1,1.8,0.3c0.3,0.2,0.4,0.7,0.4,1.5c0,0.7-0.2,1.3-0.4,1.5
		c-0.3,0.2-0.8,0.3-1.8,0.3h-1.6V251.8L986.2,251.8z M996.1,261.2h-1.9c-0.2,0-0.2-0.1-0.2-0.2v-10.9c0-0.2,0.1-0.2,0.2-0.2h1.5
		c0.6,0.1,0.6,0.1,0.9,0.5l4.6,6.7v-6.9c0-0.2,0.1-0.2,0.2-0.2h1.9c0.2,0,0.2,0.1,0.2,0.2v10.9c0,0.2-0.1,0.2-0.2,0.2h-1.4
		c-0.3,0-0.5-0.1-0.7-0.3l-4.8-7.1v7.2C996.3,261.1,996.2,261.2,996.1,261.2z M1013.7,260.1c0.6-0.8,0.9-2.3,0.9-4.6
		s-0.2-3.6-0.9-4.6c-0.7-0.9-1.9-1.3-3.8-1.3c-1.9,0-3,0.3-3.8,1.3c-0.7,0.9-0.9,2.3-0.9,4.6s0.3,3.8,0.9,4.6
		c0.6,0.8,1.9,1.3,3.8,1.3C1011.8,261.3,1012.9,260.9,1013.7,260.1z M1011.8,258.5c-0.3,0.5-0.9,0.7-2,0.7c-1,0-1.7-0.3-2-0.7
		c-0.3-0.5-0.4-1.6-0.4-2.9c0-1.5,0.2-2.5,0.4-3c0.3-0.5,0.9-0.7,2-0.7c1,0,1.7,0.2,2,0.7c0.3,0.5,0.4,1.6,0.4,3
		C1012.3,257,1012.1,258,1011.8,258.5z M1028.7,255.5c0-2.1-0.3-3.5-1.1-4.5c-0.7-0.9-2-1.4-3.6-1.4c-1.7,0-3,0.1-4.3,0.2
		c-0.2,0-0.2,0-0.2,0.2v10.8c0,0.1,0,0.2,0.2,0.2c1.3,0.1,2.7,0.2,4.3,0.2c1.8,0,2.9-0.4,3.6-1.4
		C1028.3,259,1028.7,257.6,1028.7,255.5z M1023.9,259.3h-2.2v-7.5h2.1c1.9,0,2.5,1.1,2.5,3.8
		C1026.3,258.2,1025.6,259.3,1023.9,259.3z M1030.2,261v-10.9c0-0.2,0.1-0.2,0.2-0.2h7.4c0.2,0,0.2,0.1,0.2,0.2v1.6
		c0,0.2-0.1,0.2-0.2,0.2h-5.3v2.8h4.8c0.2,0,0.2,0.1,0.2,0.2v1.5c0,0.2-0.1,0.2-0.2,0.2h-4.8v2.6h5.3c0.2,0,0.2,0.1,0.2,0.2v1.6
		c0,0.2-0.1,0.2-0.2,0.2h-7.4C1030.3,261.2,1030.2,261.1,1030.2,261z"/>
	<path fill="#FFFFFF" d="M1080.9,272.4c0,1.5-1.3,2.7-2.7,2.7c-1.5,0-2.7-1.3-2.7-2.7c0-1.5,1.3-2.7,2.7-2.7
		C1079.7,269.7,1080.9,270.9,1080.9,272.4z M1086.5,267.8v9.3H1070v-9.3H1086.5z M1081.7,272.4c0-2-1.6-3.5-3.5-3.5
		c-1.9,0-3.5,1.6-3.5,3.5s1.6,3.5,3.5,3.5C1080.1,275.9,1081.7,274.4,1081.7,272.4z M1069.3,278.3v2.7h17.8v-2.7l-0.5-0.6h-16.7
		L1069.3,278.3z M1072.7,249.3h10.8h0.2l0,0v-0.9l0,0h-0.3c-0.4-2.2-2.3-3.9-4.7-4.2v-0.4h-0.1l0,0l0,0c0-0.3-0.3-0.6-0.6-0.6
		s-0.4,0.2-0.5,0.4c0,0.1,0,0.1,0,0.2h-0.1l0,0v0.4c-2.4,0.3-4.2,2-4.7,4.2h-0.3l0,0v1l0,0L1072.7,249.3L1072.7,249.3z
		 M1087.1,266.3l-2.9-0.8h-11.8l-3,0.8v0.8h17.8L1087.1,266.3L1087.1,266.3z M1072.5,263.7l-0.3,0.4l0,0v0.6h11.9v-0.6l-0.3-0.4
		H1072.5z M1092.2,280.6l-0.3-0.6v-0.7l0,0l0.3-0.4l-0.9-5.9l-0.9-0.7l-0.9,0.7l-0.9,5.9l0.3,0.4v0.7l-0.3,0.6v0.9h-10.1l0,0h-10.2
		v-0.9l-0.3-0.6v-0.7l0.3-0.4l-0.9-5.9l-0.9-0.7l-0.9,0.7l-0.9,5.9l0.3,0.4l0,0v0.7l-0.3,0.6v0.9h-1.1l0.7,1.8v0.4
		c1-0.2,2.3-0.4,4.1-0.4c3,0,4.6,0.5,5.9,1c1.3,0.4,2.2,0.8,4.5,0.8c2.2,0,3.1-0.3,4.5-0.8c1.4-0.5,2.9-1,5.9-1c1.8,0,3,0.2,4.1,0.4
		v-0.4l0.7-1.8h-1.1v-0.9H1092.2z M1084.4,262h-0.5v1.1h-5.6h-5.6V262h-0.5v-0.6h0.4l0,0h0.1v-0.2l0.2-0.3V255l-0.2-0.4v-0.3h0.2
		v-2.8h5.4h5.4v2.8h0.2v0.3l-0.2,0.4v5.8l0.2,0.3v0.2h0.1h0.2h0.2V262L1084.4,262z M1075.5,253.5c0-0.5-0.4-0.8-0.9-0.8h-0.1
		c-0.5,0-0.9,0.4-0.9,0.8v0.7h0.2v0.3l-0.2,0.4v5.8l0.2,0.3v0.2h0.1l0,0h1.1h0.1h0.1v-0.2l0.2-0.3V255l-0.2-0.4v-0.3h0.2
		L1075.5,253.5L1075.5,253.5z M1079.9,253.8c0-0.9-0.7-1.7-1.8-1.7c-0.9,0-1.8,0.7-1.8,1.7v0.4h0.2v0.3l-0.2,0.4v5.8l0.2,0.3v0.2
		h0.2h0.2h1.1h1.1h0.2h0.2v-0.2l0.2-0.3V255l-0.2-0.4v-0.3h0.2V253.8L1079.9,253.8z M1082.6,253.5c0-0.5-0.4-0.8-0.9-0.8h-0.1
		c-0.5,0-0.9,0.4-0.9,0.8v0.7h0.2v0.3l-0.2,0.4v5.8l0.2,0.3v0.2h0.1h0.2h0.7h0.3h0.1v-0.2l0.2-0.3V255l-0.2-0.4v-0.3h0.2v-0.7
		H1082.6z M1084.3,250.9l0.3-1h-12.9l0.3,1H1084.3z M1091.5,290.1c-0.7-0.2-1.7-0.3-3-0.3c-2.3,0-3.3,0.3-4.6,0.8
		c-1.4,0.4-2.9,1-5.7,1c-2.9,0-4.5-0.5-5.7-1c-1.3-0.4-2.3-0.8-4.6-0.8c-1.4,0-2.2,0.1-2.9,0.3c4,2.3,8.5,3.5,13.3,3.5
		C1083,293.6,1087.6,292.3,1091.5,290.1z M1095.5,287.2c-0.9-0.2-1.8-0.4-2.5-0.7c-1.3-0.4-2.3-0.8-4.6-0.8s-3.3,0.3-4.6,0.8
		c-1.4,0.4-2.9,1-5.7,1s-4.5-0.5-5.7-1c-1.3-0.4-2.3-0.8-4.6-0.8c-2.3,0-3.3,0.3-4.6,0.8c-0.7,0.3-1.5,0.5-2.4,0.7
		c0.6,0.5,1.3,1,2,1.5c1.3-0.4,2.7-0.8,5.1-0.8c2.9,0,4.5,0.5,5.7,1c1.3,0.4,2.3,0.8,4.6,0.8c2.3,0,3.3-0.3,4.6-0.8
		c1.4-0.4,2.9-1,5.7-1c2.4,0,4,0.3,5.1,0.8C1094.3,288.2,1095,287.7,1095.5,287.2z M1105.2,266.5c0-14.9-12.1-27.1-27.1-27.1
		c-14.9,0-27.1,12.1-27.1,27.1c0,7.5,3,14.2,7.9,19.1c1.3-0.1,2.1-0.4,3-0.7c1.4-0.4,2.9-1,5.7-1c2.9,0,4.5,0.5,5.7,1
		c1.3,0.4,2.3,0.8,4.6,0.8c2.3,0,3.3-0.3,4.6-0.8c1.4-0.4,2.9-1,5.7-1c2.9,0,4.5,0.5,5.7,1c0.9,0.3,1.8,0.6,3,0.7
		C1102.2,280.7,1105.2,274,1105.2,266.5z M1107,266.5c0,15.9-12.9,28.9-28.9,28.9s-28.9-12.9-28.9-28.9s12.9-28.9,28.9-28.9
		C1094.1,237.7,1107,250.6,1107,266.5z"/>
</g>
</svg>
